# xmcd CD database file
#
# Track frame offsets:
#	200
#	72912
#	131377
#
# Disc length: 2916 seconds
#
# Revision: 0
# Processed by: cddbd v1.4PL0 Copyright (c) Steve Scherf et al.
# Submitted via: CDex 1.51
#
DISCID=220b6203
DTITLE=Freeport - iàffaire flibustier
DYEAR=1999
DGENRE=Jazz
TTITLE0=shrinkmindo`s revenge
TTITLE1=dierking`s office
TTITLE2=so´ungoya
EXTD=YEAR: 1999
EXTT0=
EXTT1=
EXTT2=
PLAYORDER=
